<svg width="1600" height="900" viewBox="0 0 1600 900" fill="none" xmlns="http://www.w3.org/2000/svg">
<g clip-path="url(#clip0_6_2)">
<rect width="1600" height="900" fill="white"/>
<g clip-path="url(#clip1_6_2)">
<path d="M78.5355 -0.104087L14.8959 63.5355L53.7867 102.426L117.426 38.7868L78.5355 -0.104087Z" fill="#1E0B2E"/>
<path d="M90.8076 65.2011L55.4523 100.556L62.5233 107.627L97.8787 72.2721L90.8076 65.2011Z" fill="#3C1361"/>
<path d="M136.77 33.3812L74.8977 95.2531L81.9688 102.324L143.841 40.4523L136.77 33.3812Z" fill="#5A189A"/>
<path d="M106.312 77.7764L92.1698 91.9186L113.383 113.132L127.525 98.9896L106.312 77.7764Z" fill="#7B2CBF"/>
<path d="M24.545 171.32L18.5532 171.634L23.2678 261.51L29.2596 261.196L24.545 171.32Z" fill="#9D4EDD"/>
<path d="M100 224C107.732 224 114 217.732 114 210C114 202.268 107.732 196 100 196C92.268 196 86 202.268 86 210C86 217.732 92.268 224 100 224Z" fill="#C77DFF"/>
<path d="M206.469 148.369L203.405 145.798L74.8469 299.007L77.9111 301.578L206.469 148.369Z" fill="#240046"/>
<path d="M188.901 246.534L170.516 231.107L144.805 261.749L163.19 277.176L188.901 246.534Z" fill="#B5179E"/>
</g>
<g clip-path="url(#clip2_6_2)">
<path d="M278.535 -0.104087L214.896 63.5355L253.787 102.426L317.426 38.7868L278.535 -0.104087Z" fill="#1E0B2E"/>
<path d="M290.808 65.2011L255.452 100.556L262.523 107.627L297.879 72.2721L290.808 65.2011Z" fill="#3C1361"/>
<path d="M336.77 33.3812L274.898 95.2531L281.969 102.324L343.841 40.4523L336.77 33.3812Z" fill="#5A189A"/>
<path d="M306.312 77.7764L292.17 91.9186L313.383 113.132L327.525 98.9896L306.312 77.7764Z" fill="#7B2CBF"/>
<path d="M224.545 171.32L218.553 171.634L223.268 261.51L229.26 261.196L224.545 171.32Z" fill="#9D4EDD"/>
<path d="M300 224C307.732 224 314 217.732 314 210C314 202.268 307.732 196 300 196C292.268 196 286 202.268 286 210C286 217.732 292.268 224 300 224Z" fill="#C77DFF"/>
<path d="M406.469 148.369L403.405 145.798L274.847 299.007L277.911 301.578L406.469 148.369Z" fill="#240046"/>
<path d="M388.901 246.534L370.516 231.107L344.805 261.749L363.19 277.176L388.901 246.534Z" fill="#B5179E"/>
</g>
<g clip-path="url(#clip3_6_2)">
<path d="M478.535 -0.104087L414.896 63.5355L453.787 102.426L517.426 38.7868L478.535 -0.104087Z" fill="#1E0B2E"/>
<path d="M490.808 65.2011L455.452 100.556L462.523 107.627L497.879 72.2721L490.808 65.2011Z" fill="#3C1361"/>
<path d="M536.77 33.3812L474.898 95.2531L481.969 102.324L543.841 40.4523L536.77 33.3812Z" fill="#5A189A"/>
<path d="M506.312 77.7764L492.17 91.9186L513.383 113.132L527.525 98.9896L506.312 77.7764Z" fill="#7B2CBF"/>
<path d="M424.545 171.32L418.553 171.634L423.268 261.51L429.26 261.196L424.545 171.32Z" fill="#9D4EDD"/>
<path d="M500 224C507.732 224 514 217.732 514 210C514 202.268 507.732 196 500 196C492.268 196 486 202.268 486 210C486 217.732 492.268 224 500 224Z" fill="#C77DFF"/>
<path d="M606.469 148.369L603.405 145.798L474.847 299.007L477.911 301.578L606.469 148.369Z" fill="#240046"/>
<path d="M588.901 246.534L570.516 231.107L544.805 261.749L563.19 277.176L588.901 246.534Z" fill="#B5179E"/>
</g>
<g clip-path="url(#clip4_6_2)">
<path d="M678.535 -0.104087L614.896 63.5355L653.787 102.426L717.426 38.7868L678.535 -0.104087Z" fill="#1E0B2E"/>
<path d="M690.808 65.2011L655.452 100.556L662.523 107.627L697.879 72.2721L690.808 65.2011Z" fill="#3C1361"/>
<path d="M736.77 33.3812L674.898 95.2531L681.969 102.324L743.841 40.4523L736.77 33.3812Z" fill="#5A189A"/>
<path d="M706.312 77.7764L692.17 91.9186L713.383 113.132L727.525 98.9896L706.312 77.7764Z" fill="#7B2CBF"/>
<path d="M624.545 171.32L618.553 171.634L623.268 261.51L629.26 261.196L624.545 171.32Z" fill="#9D4EDD"/>
<path d="M700 224C707.732 224 714 217.732 714 210C714 202.268 707.732 196 700 196C692.268 196 686 202.268 686 210C686 217.732 692.268 224 700 224Z" fill="#C77DFF"/>
<path d="M806.469 148.369L803.405 145.798L674.847 299.007L677.911 301.578L806.469 148.369Z" fill="#240046"/>
<path d="M788.901 246.534L770.516 231.107L744.805 261.749L763.19 277.176L788.901 246.534Z" fill="#B5179E"/>
</g>
<g clip-path="url(#clip5_6_2)">
<path d="M78.5355 299.896L14.8959 363.536L53.7867 402.426L117.426 338.787L78.5355 299.896Z" fill="#1E0B2E"/>
<path d="M90.8076 365.201L55.4523 400.556L62.5233 407.627L97.8787 372.272L90.8076 365.201Z" fill="#3C1361"/>
<path d="M136.77 333.381L74.8977 395.253L81.9688 402.324L143.841 340.452L136.77 333.381Z" fill="#5A189A"/>
<path d="M106.312 377.776L92.1698 391.919L113.383 413.132L127.525 398.99L106.312 377.776Z" fill="#7B2CBF"/>
<path d="M24.545 471.32L18.5532 471.634L23.2678 561.51L29.2596 561.196L24.545 471.32Z" fill="#9D4EDD"/>
<path d="M100 524C107.732 524 114 517.732 114 510C114 502.268 107.732 496 100 496C92.268 496 86 502.268 86 510C86 517.732 92.268 524 100 524Z" fill="#C77DFF"/>
<path d="M206.469 448.369L203.405 445.798L74.8469 599.007L77.9111 601.578L206.469 448.369Z" fill="#240046"/>
<path d="M188.901 546.534L170.516 531.107L144.805 561.749L163.19 577.176L188.901 546.534Z" fill="#B5179E"/>
</g>
<g clip-path="url(#clip6_6_2)">
<path d="M278.535 299.896L214.896 363.536L253.787 402.426L317.426 338.787L278.535 299.896Z" fill="#1E0B2E"/>
<path d="M290.808 365.201L255.452 400.556L262.523 407.627L297.879 372.272L290.808 365.201Z" fill="#3C1361"/>
<path d="M336.77 333.381L274.898 395.253L281.969 402.324L343.841 340.452L336.77 333.381Z" fill="#5A189A"/>
<path d="M306.312 377.776L292.17 391.919L313.383 413.132L327.525 398.99L306.312 377.776Z" fill="#7B2CBF"/>
<path d="M224.545 471.32L218.553 471.634L223.268 561.51L229.26 561.196L224.545 471.32Z" fill="#9D4EDD"/>
<path d="M300 524C307.732 524 314 517.732 314 510C314 502.268 307.732 496 300 496C292.268 496 286 502.268 286 510C286 517.732 292.268 524 300 524Z" fill="#C77DFF"/>
<path d="M406.469 448.369L403.405 445.798L274.847 599.007L277.911 601.578L406.469 448.369Z" fill="#240046"/>
<path d="M388.901 546.534L370.516 531.107L344.805 561.749L363.19 577.176L388.901 546.534Z" fill="#B5179E"/>
</g>
<g clip-path="url(#clip7_6_2)">
<path d="M478.535 299.896L414.896 363.536L453.787 402.426L517.426 338.787L478.535 299.896Z" fill="#1E0B2E"/>
<path d="M490.808 365.201L455.452 400.556L462.523 407.627L497.879 372.272L490.808 365.201Z" fill="#3C1361"/>
<path d="M536.77 333.381L474.898 395.253L481.969 402.324L543.841 340.452L536.77 333.381Z" fill="#5A189A"/>
<path d="M506.312 377.776L492.17 391.919L513.383 413.132L527.525 398.99L506.312 377.776Z" fill="#7B2CBF"/>
<path d="M424.545 471.32L418.553 471.634L423.268 561.51L429.26 561.196L424.545 471.32Z" fill="#9D4EDD"/>
<path d="M500 524C507.732 524 514 517.732 514 510C514 502.268 507.732 496 500 496C492.268 496 486 502.268 486 510C486 517.732 492.268 524 500 524Z" fill="#C77DFF"/>
<path d="M606.469 448.369L603.405 445.798L474.847 599.007L477.911 601.578L606.469 448.369Z" fill="#240046"/>
<path d="M588.901 546.534L570.516 531.107L544.805 561.749L563.19 577.176L588.901 546.534Z" fill="#B5179E"/>
</g>
<g clip-path="url(#clip8_6_2)">
<path d="M678.535 299.896L614.896 363.536L653.787 402.426L717.426 338.787L678.535 299.896Z" fill="#1E0B2E"/>
<path d="M690.808 365.201L655.452 400.556L662.523 407.627L697.879 372.272L690.808 365.201Z" fill="#3C1361"/>
<path d="M736.77 333.381L674.898 395.253L681.969 402.324L743.841 340.452L736.77 333.381Z" fill="#5A189A"/>
<path d="M706.312 377.776L692.17 391.919L713.383 413.132L727.525 398.99L706.312 377.776Z" fill="#7B2CBF"/>
<path d="M624.545 471.32L618.553 471.634L623.268 561.51L629.26 561.196L624.545 471.32Z" fill="#9D4EDD"/>
<path d="M700 524C707.732 524 714 517.732 714 510C714 502.268 707.732 496 700 496C692.268 496 686 502.268 686 510C686 517.732 692.268 524 700 524Z" fill="#C77DFF"/>
<path d="M806.469 448.369L803.405 445.798L674.847 599.007L677.911 601.578L806.469 448.369Z" fill="#240046"/>
<path d="M788.901 546.534L770.516 531.107L744.805 561.749L763.19 577.176L788.901 546.534Z" fill="#B5179E"/>
</g>
<g clip-path="url(#clip9_6_2)">
<path d="M867.535 601.896L803.896 665.536L842.787 704.427L906.426 640.787L867.535 601.896Z" fill="#1E0B2E"/>
<path d="M879.808 667.201L844.452 702.556L851.523 709.627L886.879 674.272L879.808 667.201Z" fill="#3C1361"/>
<path d="M925.77 635.381L863.898 697.253L870.969 704.324L932.841 642.452L925.77 635.381Z" fill="#5A189A"/>
<path d="M895.312 679.776L881.17 693.918L902.383 715.132L916.525 700.99L895.312 679.776Z" fill="#7B2CBF"/>
<path d="M813.545 773.32L807.553 773.634L812.268 863.51L818.26 863.196L813.545 773.32Z" fill="#9D4EDD"/>
<path d="M889 826C896.732 826 903 819.732 903 812C903 804.268 896.732 798 889 798C881.268 798 875 804.268 875 812C875 819.732 881.268 826 889 826Z" fill="#C77DFF"/>
<path d="M995.469 750.369L992.405 747.798L863.847 901.007L866.911 903.578L995.469 750.369Z" fill="#240046"/>
<path d="M977.901 848.534L959.516 833.107L933.805 863.749L952.19 879.176L977.901 848.534Z" fill="#B5179E"/>
</g>
<g clip-path="url(#clip10_6_2)">
<path d="M1067.54 601.896L1003.9 665.536L1042.79 704.427L1106.43 640.787L1067.54 601.896Z" fill="#1E0B2E"/>
<path d="M1079.81 667.201L1044.45 702.556L1051.52 709.627L1086.88 674.272L1079.81 667.201Z" fill="#3C1361"/>
<path d="M1125.77 635.381L1063.9 697.253L1070.97 704.324L1132.84 642.452L1125.77 635.381Z" fill="#5A189A"/>
<path d="M1095.31 679.776L1081.17 693.918L1102.38 715.132L1116.53 700.99L1095.31 679.776Z" fill="#7B2CBF"/>
<path d="M1013.55 773.32L1007.55 773.634L1012.27 863.51L1018.26 863.196L1013.55 773.32Z" fill="#9D4EDD"/>
<path d="M1089 826C1096.73 826 1103 819.732 1103 812C1103 804.268 1096.73 798 1089 798C1081.27 798 1075 804.268 1075 812C1075 819.732 1081.27 826 1089 826Z" fill="#C77DFF"/>
<path d="M1195.47 750.369L1192.4 747.798L1063.85 901.007L1066.91 903.578L1195.47 750.369Z" fill="#240046"/>
<path d="M1177.9 848.534L1159.52 833.107L1133.8 863.749L1152.19 879.176L1177.9 848.534Z" fill="#B5179E"/>
</g>
<g clip-path="url(#clip11_6_2)">
<path d="M1267.54 601.896L1203.9 665.536L1242.79 704.427L1306.43 640.787L1267.54 601.896Z" fill="#1E0B2E"/>
<path d="M1279.81 667.201L1244.45 702.556L1251.52 709.627L1286.88 674.272L1279.81 667.201Z" fill="#3C1361"/>
<path d="M1325.77 635.381L1263.9 697.253L1270.97 704.324L1332.84 642.452L1325.77 635.381Z" fill="#5A189A"/>
<path d="M1295.31 679.776L1281.17 693.918L1302.38 715.132L1316.53 700.99L1295.31 679.776Z" fill="#7B2CBF"/>
<path d="M1213.55 773.32L1207.55 773.634L1212.27 863.51L1218.26 863.196L1213.55 773.32Z" fill="#9D4EDD"/>
<path d="M1289 826C1296.73 826 1303 819.732 1303 812C1303 804.268 1296.73 798 1289 798C1281.27 798 1275 804.268 1275 812C1275 819.732 1281.27 826 1289 826Z" fill="#C77DFF"/>
<path d="M1395.47 750.369L1392.4 747.798L1263.85 901.007L1266.91 903.578L1395.47 750.369Z" fill="#240046"/>
<path d="M1377.9 848.534L1359.52 833.107L1333.8 863.749L1352.19 879.176L1377.9 848.534Z" fill="#B5179E"/>
</g>
<g clip-path="url(#clip12_6_2)">
<path d="M1467.54 601.896L1403.9 665.536L1442.79 704.427L1506.43 640.787L1467.54 601.896Z" fill="#1E0B2E"/>
<path d="M1479.81 667.201L1444.45 702.556L1451.52 709.627L1486.88 674.272L1479.81 667.201Z" fill="#3C1361"/>
<path d="M1525.77 635.381L1463.9 697.253L1470.97 704.324L1532.84 642.452L1525.77 635.381Z" fill="#5A189A"/>
<path d="M1495.31 679.776L1481.17 693.918L1502.38 715.132L1516.53 700.99L1495.31 679.776Z" fill="#7B2CBF"/>
<path d="M1413.55 773.32L1407.55 773.634L1412.27 863.51L1418.26 863.196L1413.55 773.32Z" fill="#9D4EDD"/>
<path d="M1489 826C1496.73 826 1503 819.732 1503 812C1503 804.268 1496.73 798 1489 798C1481.27 798 1475 804.268 1475 812C1475 819.732 1481.27 826 1489 826Z" fill="#C77DFF"/>
<path d="M1595.47 750.369L1592.4 747.798L1463.85 901.007L1466.91 903.578L1595.47 750.369Z" fill="#240046"/>
<path d="M1577.9 848.534L1559.52 833.107L1533.8 863.749L1552.19 879.176L1577.9 848.534Z" fill="#B5179E"/>
</g>
<g clip-path="url(#clip13_6_2)">
<path d="M867.535 299.896L803.896 363.536L842.787 402.426L906.426 338.787L867.535 299.896Z" fill="#1E0B2E"/>
<path d="M879.808 365.201L844.452 400.556L851.523 407.627L886.879 372.272L879.808 365.201Z" fill="#3C1361"/>
<path d="M925.77 333.381L863.898 395.253L870.969 402.324L932.841 340.452L925.77 333.381Z" fill="#5A189A"/>
<path d="M895.312 377.776L881.17 391.919L902.383 413.132L916.525 398.99L895.312 377.776Z" fill="#7B2CBF"/>
<path d="M813.545 471.32L807.553 471.634L812.268 561.51L818.26 561.196L813.545 471.32Z" fill="#9D4EDD"/>
<path d="M889 524C896.732 524 903 517.732 903 510C903 502.268 896.732 496 889 496C881.268 496 875 502.268 875 510C875 517.732 881.268 524 889 524Z" fill="#C77DFF"/>
<path d="M995.469 448.369L992.405 445.798L863.847 599.007L866.911 601.578L995.469 448.369Z" fill="#240046"/>
<path d="M977.901 546.534L959.516 531.107L933.805 561.749L952.19 577.176L977.901 546.534Z" fill="#B5179E"/>
</g>
<g clip-path="url(#clip14_6_2)">
<path d="M1067.54 299.896L1003.9 363.536L1042.79 402.426L1106.43 338.787L1067.54 299.896Z" fill="#1E0B2E"/>
<path d="M1079.81 365.201L1044.45 400.556L1051.52 407.627L1086.88 372.272L1079.81 365.201Z" fill="#3C1361"/>
<path d="M1125.77 333.381L1063.9 395.253L1070.97 402.324L1132.84 340.452L1125.77 333.381Z" fill="#5A189A"/>
<path d="M1095.31 377.776L1081.17 391.919L1102.38 413.132L1116.53 398.99L1095.31 377.776Z" fill="#7B2CBF"/>
<path d="M1013.55 471.32L1007.55 471.634L1012.27 561.51L1018.26 561.196L1013.55 471.32Z" fill="#9D4EDD"/>
<path d="M1089 524C1096.73 524 1103 517.732 1103 510C1103 502.268 1096.73 496 1089 496C1081.27 496 1075 502.268 1075 510C1075 517.732 1081.27 524 1089 524Z" fill="#C77DFF"/>
<path d="M1195.47 448.369L1192.4 445.798L1063.85 599.007L1066.91 601.578L1195.47 448.369Z" fill="#240046"/>
<path d="M1177.9 546.534L1159.52 531.107L1133.8 561.749L1152.19 577.176L1177.9 546.534Z" fill="#B5179E"/>
</g>
<g clip-path="url(#clip15_6_2)">
<path d="M1267.54 299.896L1203.9 363.536L1242.79 402.426L1306.43 338.787L1267.54 299.896Z" fill="#1E0B2E"/>
<path d="M1279.81 365.201L1244.45 400.556L1251.52 407.627L1286.88 372.272L1279.81 365.201Z" fill="#3C1361"/>
<path d="M1325.77 333.381L1263.9 395.253L1270.97 402.324L1332.84 340.452L1325.77 333.381Z" fill="#5A189A"/>
<path d="M1295.31 377.776L1281.17 391.919L1302.38 413.132L1316.53 398.99L1295.31 377.776Z" fill="#7B2CBF"/>
<path d="M1213.55 471.32L1207.55 471.634L1212.27 561.51L1218.26 561.196L1213.55 471.32Z" fill="#9D4EDD"/>
<path d="M1289 524C1296.73 524 1303 517.732 1303 510C1303 502.268 1296.73 496 1289 496C1281.27 496 1275 502.268 1275 510C1275 517.732 1281.27 524 1289 524Z" fill="#C77DFF"/>
<path d="M1395.47 448.369L1392.4 445.798L1263.85 599.007L1266.91 601.578L1395.47 448.369Z" fill="#240046"/>
<path d="M1377.9 546.534L1359.52 531.107L1333.8 561.749L1352.19 577.176L1377.9 546.534Z" fill="#B5179E"/>
</g>
<g clip-path="url(#clip16_6_2)">
<path d="M1467.54 299.896L1403.9 363.536L1442.79 402.426L1506.43 338.787L1467.54 299.896Z" fill="#1E0B2E"/>
<path d="M1479.81 365.201L1444.45 400.556L1451.52 407.627L1486.88 372.272L1479.81 365.201Z" fill="#3C1361"/>
<path d="M1525.77 333.381L1463.9 395.253L1470.97 402.324L1532.84 340.452L1525.77 333.381Z" fill="#5A189A"/>
<path d="M1495.31 377.776L1481.17 391.919L1502.38 413.132L1516.53 398.99L1495.31 377.776Z" fill="#7B2CBF"/>
<path d="M1413.55 471.32L1407.55 471.634L1412.27 561.51L1418.26 561.196L1413.55 471.32Z" fill="#9D4EDD"/>
<path d="M1489 524C1496.73 524 1503 517.732 1503 510C1503 502.268 1496.73 496 1489 496C1481.27 496 1475 502.268 1475 510C1475 517.732 1481.27 524 1489 524Z" fill="#C77DFF"/>
<path d="M1595.47 448.369L1592.4 445.798L1463.85 599.007L1466.91 601.578L1595.47 448.369Z" fill="#240046"/>
<path d="M1577.9 546.534L1559.52 531.107L1533.8 561.749L1552.19 577.176L1577.9 546.534Z" fill="#B5179E"/>
</g>
<g clip-path="url(#clip17_6_2)">
<path d="M867.535 1.89591L803.896 65.5355L842.787 104.426L906.426 40.7868L867.535 1.89591Z" fill="#1E0B2E"/>
<path d="M879.808 67.2011L844.452 102.556L851.523 109.627L886.879 74.2721L879.808 67.2011Z" fill="#3C1361"/>
<path d="M925.77 35.3812L863.898 97.2531L870.969 104.324L932.841 42.4523L925.77 35.3812Z" fill="#5A189A"/>
<path d="M895.312 79.7764L881.17 93.9186L902.383 115.132L916.525 100.99L895.312 79.7764Z" fill="#7B2CBF"/>
<path d="M813.545 173.32L807.553 173.634L812.268 263.51L818.26 263.196L813.545 173.32Z" fill="#9D4EDD"/>
<path d="M889 226C896.732 226 903 219.732 903 212C903 204.268 896.732 198 889 198C881.268 198 875 204.268 875 212C875 219.732 881.268 226 889 226Z" fill="#C77DFF"/>
<path d="M995.469 150.369L992.405 147.798L863.847 301.007L866.911 303.578L995.469 150.369Z" fill="#240046"/>
<path d="M977.901 248.534L959.516 233.107L933.805 263.749L952.19 279.176L977.901 248.534Z" fill="#B5179E"/>
</g>
<g clip-path="url(#clip18_6_2)">
<path d="M1067.54 1.89591L1003.9 65.5355L1042.79 104.426L1106.43 40.7868L1067.54 1.89591Z" fill="#1E0B2E"/>
<path d="M1079.81 67.2011L1044.45 102.556L1051.52 109.627L1086.88 74.2721L1079.81 67.2011Z" fill="#3C1361"/>
<path d="M1125.77 35.3812L1063.9 97.2531L1070.97 104.324L1132.84 42.4523L1125.77 35.3812Z" fill="#5A189A"/>
<path d="M1095.31 79.7764L1081.17 93.9186L1102.38 115.132L1116.53 100.99L1095.31 79.7764Z" fill="#7B2CBF"/>
<path d="M1013.55 173.32L1007.55 173.634L1012.27 263.51L1018.26 263.196L1013.55 173.32Z" fill="#9D4EDD"/>
<path d="M1089 226C1096.73 226 1103 219.732 1103 212C1103 204.268 1096.73 198 1089 198C1081.27 198 1075 204.268 1075 212C1075 219.732 1081.27 226 1089 226Z" fill="#C77DFF"/>
<path d="M1195.47 150.369L1192.4 147.798L1063.85 301.007L1066.91 303.578L1195.47 150.369Z" fill="#240046"/>
<path d="M1177.9 248.534L1159.52 233.107L1133.8 263.749L1152.19 279.176L1177.9 248.534Z" fill="#B5179E"/>
</g>
<g clip-path="url(#clip19_6_2)">
<path d="M1267.54 1.89591L1203.9 65.5355L1242.79 104.426L1306.43 40.7868L1267.54 1.89591Z" fill="#1E0B2E"/>
<path d="M1279.81 67.2011L1244.45 102.556L1251.52 109.627L1286.88 74.2721L1279.81 67.2011Z" fill="#3C1361"/>
<path d="M1325.77 35.3812L1263.9 97.2531L1270.97 104.324L1332.84 42.4523L1325.77 35.3812Z" fill="#5A189A"/>
<path d="M1295.31 79.7764L1281.17 93.9186L1302.38 115.132L1316.53 100.99L1295.31 79.7764Z" fill="#7B2CBF"/>
<path d="M1213.55 173.32L1207.55 173.634L1212.27 263.51L1218.26 263.196L1213.55 173.32Z" fill="#9D4EDD"/>
<path d="M1289 226C1296.73 226 1303 219.732 1303 212C1303 204.268 1296.73 198 1289 198C1281.27 198 1275 204.268 1275 212C1275 219.732 1281.27 226 1289 226Z" fill="#C77DFF"/>
<path d="M1395.47 150.369L1392.4 147.798L1263.85 301.007L1266.91 303.578L1395.47 150.369Z" fill="#240046"/>
<path d="M1377.9 248.534L1359.52 233.107L1333.8 263.749L1352.19 279.176L1377.9 248.534Z" fill="#B5179E"/>
</g>
<g clip-path="url(#clip20_6_2)">
<path d="M1467.54 1.89591L1403.9 65.5355L1442.79 104.426L1506.43 40.7868L1467.54 1.89591Z" fill="#1E0B2E"/>
<path d="M1479.81 67.2011L1444.45 102.556L1451.52 109.627L1486.88 74.2721L1479.81 67.2011Z" fill="#3C1361"/>
<path d="M1525.77 35.3812L1463.9 97.2531L1470.97 104.324L1532.84 42.4523L1525.77 35.3812Z" fill="#5A189A"/>
<path d="M1495.31 79.7764L1481.17 93.9186L1502.38 115.132L1516.53 100.99L1495.31 79.7764Z" fill="#7B2CBF"/>
<path d="M1413.55 173.32L1407.55 173.634L1412.27 263.51L1418.26 263.196L1413.55 173.32Z" fill="#9D4EDD"/>
<path d="M1489 226C1496.73 226 1503 219.732 1503 212C1503 204.268 1496.73 198 1489 198C1481.27 198 1475 204.268 1475 212C1475 219.732 1481.27 226 1489 226Z" fill="#C77DFF"/>
<path d="M1595.47 150.369L1592.4 147.798L1463.85 301.007L1466.91 303.578L1595.47 150.369Z" fill="#240046"/>
<path d="M1577.9 248.534L1559.52 233.107L1533.8 263.749L1552.19 279.176L1577.9 248.534Z" fill="#B5179E"/>
</g>
<g clip-path="url(#clip21_6_2)">
<path d="M78.5355 599.896L14.8959 663.536L53.7867 702.427L117.426 638.787L78.5355 599.896Z" fill="#1E0B2E"/>
<path d="M90.8076 665.201L55.4523 700.556L62.5233 707.627L97.8787 672.272L90.8076 665.201Z" fill="#3C1361"/>
<path d="M136.77 633.381L74.8977 695.253L81.9688 702.324L143.841 640.452L136.77 633.381Z" fill="#5A189A"/>
<path d="M106.312 677.776L92.1698 691.918L113.383 713.132L127.525 698.99L106.312 677.776Z" fill="#7B2CBF"/>
<path d="M24.545 771.32L18.5532 771.634L23.2678 861.51L29.2596 861.196L24.545 771.32Z" fill="#9D4EDD"/>
<path d="M100 824C107.732 824 114 817.732 114 810C114 802.268 107.732 796 100 796C92.268 796 86 802.268 86 810C86 817.732 92.268 824 100 824Z" fill="#C77DFF"/>
<path d="M206.469 748.369L203.405 745.798L74.8469 899.007L77.9111 901.578L206.469 748.369Z" fill="#240046"/>
<path d="M188.901 846.534L170.516 831.107L144.805 861.749L163.19 877.176L188.901 846.534Z" fill="#B5179E"/>
</g>
<g clip-path="url(#clip22_6_2)">
<path d="M278.535 599.896L214.896 663.536L253.787 702.427L317.426 638.787L278.535 599.896Z" fill="#1E0B2E"/>
<path d="M290.808 665.201L255.452 700.556L262.523 707.627L297.879 672.272L290.808 665.201Z" fill="#3C1361"/>
<path d="M336.77 633.381L274.898 695.253L281.969 702.324L343.841 640.452L336.77 633.381Z" fill="#5A189A"/>
<path d="M306.312 677.776L292.17 691.918L313.383 713.132L327.525 698.99L306.312 677.776Z" fill="#7B2CBF"/>
<path d="M224.545 771.32L218.553 771.634L223.268 861.51L229.26 861.196L224.545 771.32Z" fill="#9D4EDD"/>
<path d="M300 824C307.732 824 314 817.732 314 810C314 802.268 307.732 796 300 796C292.268 796 286 802.268 286 810C286 817.732 292.268 824 300 824Z" fill="#C77DFF"/>
<path d="M406.469 748.369L403.405 745.798L274.847 899.007L277.911 901.578L406.469 748.369Z" fill="#240046"/>
<path d="M388.901 846.534L370.516 831.107L344.805 861.749L363.19 877.176L388.901 846.534Z" fill="#B5179E"/>
</g>
<g clip-path="url(#clip23_6_2)">
<path d="M478.535 599.896L414.896 663.536L453.787 702.427L517.426 638.787L478.535 599.896Z" fill="#1E0B2E"/>
<path d="M490.808 665.201L455.452 700.556L462.523 707.627L497.879 672.272L490.808 665.201Z" fill="#3C1361"/>
<path d="M536.77 633.381L474.898 695.253L481.969 702.324L543.841 640.452L536.77 633.381Z" fill="#5A189A"/>
<path d="M506.312 677.776L492.17 691.918L513.383 713.132L527.525 698.99L506.312 677.776Z" fill="#7B2CBF"/>
<path d="M424.545 771.32L418.553 771.634L423.268 861.51L429.26 861.196L424.545 771.32Z" fill="#9D4EDD"/>
<path d="M500 824C507.732 824 514 817.732 514 810C514 802.268 507.732 796 500 796C492.268 796 486 802.268 486 810C486 817.732 492.268 824 500 824Z" fill="#C77DFF"/>
<path d="M606.469 748.369L603.405 745.798L474.847 899.007L477.911 901.578L606.469 748.369Z" fill="#240046"/>
<path d="M588.901 846.534L570.516 831.107L544.805 861.749L563.19 877.176L588.901 846.534Z" fill="#B5179E"/>
</g>
<g clip-path="url(#clip24_6_2)">
<path d="M678.535 599.896L614.896 663.536L653.787 702.427L717.426 638.787L678.535 599.896Z" fill="#1E0B2E"/>
<path d="M690.808 665.201L655.452 700.556L662.523 707.627L697.879 672.272L690.808 665.201Z" fill="#3C1361"/>
<path d="M736.77 633.381L674.898 695.253L681.969 702.324L743.841 640.452L736.77 633.381Z" fill="#5A189A"/>
<path d="M706.312 677.776L692.17 691.918L713.383 713.132L727.525 698.99L706.312 677.776Z" fill="#7B2CBF"/>
<path d="M624.545 771.32L618.553 771.634L623.268 861.51L629.26 861.196L624.545 771.32Z" fill="#9D4EDD"/>
<path d="M700 824C707.732 824 714 817.732 714 810C714 802.268 707.732 796 700 796C692.268 796 686 802.268 686 810C686 817.732 692.268 824 700 824Z" fill="#C77DFF"/>
<path d="M806.469 748.369L803.405 745.798L674.847 899.007L677.911 901.578L806.469 748.369Z" fill="#240046"/>
<path d="M788.901 846.534L770.516 831.107L744.805 861.749L763.19 877.176L788.901 846.534Z" fill="#B5179E"/>
</g>
</g>
<defs>
<clipPath id="clip0_6_2">
<rect width="1600" height="900" fill="white"/>
</clipPath>
<clipPath id="clip1_6_2">
<rect width="200" height="300" fill="white"/>
</clipPath>
<clipPath id="clip2_6_2">
<rect width="200" height="300" fill="white" transform="translate(200)"/>
</clipPath>
<clipPath id="clip3_6_2">
<rect width="200" height="300" fill="white" transform="translate(400)"/>
</clipPath>
<clipPath id="clip4_6_2">
<rect width="200" height="300" fill="white" transform="translate(600)"/>
</clipPath>
<clipPath id="clip5_6_2">
<rect width="200" height="300" fill="white" transform="translate(0 300)"/>
</clipPath>
<clipPath id="clip6_6_2">
<rect width="200" height="300" fill="white" transform="translate(200 300)"/>
</clipPath>
<clipPath id="clip7_6_2">
<rect width="200" height="300" fill="white" transform="translate(400 300)"/>
</clipPath>
<clipPath id="clip8_6_2">
<rect width="200" height="300" fill="white" transform="translate(600 300)"/>
</clipPath>
<clipPath id="clip9_6_2">
<rect width="200" height="300" fill="white" transform="translate(789 602)"/>
</clipPath>
<clipPath id="clip10_6_2">
<rect width="200" height="300" fill="white" transform="translate(989 602)"/>
</clipPath>
<clipPath id="clip11_6_2">
<rect width="200" height="300" fill="white" transform="translate(1189 602)"/>
</clipPath>
<clipPath id="clip12_6_2">
<rect width="200" height="300" fill="white" transform="translate(1389 602)"/>
</clipPath>
<clipPath id="clip13_6_2">
<rect width="200" height="300" fill="white" transform="translate(789 300)"/>
</clipPath>
<clipPath id="clip14_6_2">
<rect width="200" height="300" fill="white" transform="translate(989 300)"/>
</clipPath>
<clipPath id="clip15_6_2">
<rect width="200" height="300" fill="white" transform="translate(1189 300)"/>
</clipPath>
<clipPath id="clip16_6_2">
<rect width="200" height="300" fill="white" transform="translate(1389 300)"/>
</clipPath>
<clipPath id="clip17_6_2">
<rect width="200" height="300" fill="white" transform="translate(789 2)"/>
</clipPath>
<clipPath id="clip18_6_2">
<rect width="200" height="300" fill="white" transform="translate(989 2)"/>
</clipPath>
<clipPath id="clip19_6_2">
<rect width="200" height="300" fill="white" transform="translate(1189 2)"/>
</clipPath>
<clipPath id="clip20_6_2">
<rect width="200" height="300" fill="white" transform="translate(1389 2)"/>
</clipPath>
<clipPath id="clip21_6_2">
<rect width="200" height="300" fill="white" transform="translate(0 600)"/>
</clipPath>
<clipPath id="clip22_6_2">
<rect width="200" height="300" fill="white" transform="translate(200 600)"/>
</clipPath>
<clipPath id="clip23_6_2">
<rect width="200" height="300" fill="white" transform="translate(400 600)"/>
</clipPath>
<clipPath id="clip24_6_2">
<rect width="200" height="300" fill="white" transform="translate(600 600)"/>
</clipPath>
</defs>
</svg>
