<svg width="1600" height="900" viewBox="0 0 1600 900" fill="none" xmlns="http://www.w3.org/2000/svg">
<g clip-path="url(#clip0_6_708)">
<rect width="1600" height="900" fill="#FADFFF"/>
<g clip-path="url(#clip1_6_708)">
<path d="M117.803 -0.156069L22.344 95.3033L80.6803 153.64L176.14 58.1802L117.803 -0.156069Z" fill="#1E0B2E"/>
<path d="M136.211 97.8015L83.1785 150.834L93.7851 161.441L146.818 108.408L136.211 97.8015Z" fill="#3C1361"/>
<path d="M205.154 50.0719L112.347 142.88L122.953 153.486L215.761 60.6785L205.154 50.0719Z" fill="#5A189A"/>
<path d="M159.468 116.665L138.255 137.878L170.074 169.698L191.288 148.484L159.468 116.665Z" fill="#7B2CBF"/>
<path d="M36.8175 256.98L27.8298 257.451L34.9059 392.265L43.8936 391.795L36.8175 256.98Z" fill="#9D4EDD"/>
<path d="M150 336C161.598 336 171 326.598 171 315C171 303.402 161.598 294 150 294C138.402 294 129 303.402 129 315C129 326.598 138.402 336 150 336Z" fill="#C77DFF"/>
<path d="M309.703 222.554L305.107 218.697L112.27 448.51L116.867 452.367L309.703 222.554Z" fill="#240046"/>
<path d="M283.352 369.801L255.774 346.661L217.207 392.623L244.785 415.764L283.352 369.801Z" fill="#B5179E"/>
</g>
<g clip-path="url(#clip2_6_708)">
<path d="M417.803 -0.156069L322.344 95.3033L380.68 153.64L476.14 58.1802L417.803 -0.156069Z" fill="#1E0B2E"/>
<path d="M436.211 97.8015L383.178 150.834L393.785 161.441L446.818 108.408L436.211 97.8015Z" fill="#3C1361"/>
<path d="M505.154 50.0719L412.347 142.88L422.953 153.486L515.761 60.6785L505.154 50.0719Z" fill="#5A189A"/>
<path d="M459.468 116.665L438.255 137.878L470.074 169.698L491.288 148.484L459.468 116.665Z" fill="#7B2CBF"/>
<path d="M336.818 256.98L327.83 257.451L334.906 392.265L343.894 391.795L336.818 256.98Z" fill="#9D4EDD"/>
<path d="M450 336C461.598 336 471 326.598 471 315C471 303.402 461.598 294 450 294C438.402 294 429 303.402 429 315C429 326.598 438.402 336 450 336Z" fill="#C77DFF"/>
<path d="M609.703 222.554L605.107 218.697L412.27 448.51L416.867 452.367L609.703 222.554Z" fill="#240046"/>
<path d="M583.352 369.801L555.774 346.661L517.207 392.623L544.785 415.764L583.352 369.801Z" fill="#B5179E"/>
</g>
<g clip-path="url(#clip3_6_708)">
<path d="M717.803 451.844L622.344 547.303L680.68 605.64L776.14 510.18L717.803 451.844Z" fill="#1E0B2E"/>
<path d="M736.211 549.801L683.178 602.834L693.785 613.441L746.818 560.408L736.211 549.801Z" fill="#3C1361"/>
<path d="M805.154 502.072L712.347 594.88L722.953 605.486L815.761 512.678L805.154 502.072Z" fill="#5A189A"/>
<path d="M759.468 568.665L738.255 589.878L770.074 621.698L791.288 600.484L759.468 568.665Z" fill="#7B2CBF"/>
<path d="M636.818 708.98L627.83 709.451L634.906 844.265L643.894 843.795L636.818 708.98Z" fill="#9D4EDD"/>
<path d="M750 788C761.598 788 771 778.598 771 767C771 755.402 761.598 746 750 746C738.402 746 729 755.402 729 767C729 778.598 738.402 788 750 788Z" fill="#C77DFF"/>
<path d="M909.703 674.554L905.107 670.697L712.27 900.51L716.867 904.367L909.703 674.554Z" fill="#240046"/>
<path d="M883.352 821.801L855.774 798.66L817.207 844.623L844.785 867.763L883.352 821.801Z" fill="#B5179E"/>
</g>
<g clip-path="url(#clip4_6_708)">
<path d="M1017.8 451.844L922.344 547.303L980.68 605.64L1076.14 510.18L1017.8 451.844Z" fill="#1E0B2E"/>
<path d="M1036.21 549.801L983.178 602.834L993.785 613.441L1046.82 560.408L1036.21 549.801Z" fill="#3C1361"/>
<path d="M1105.15 502.072L1012.35 594.88L1022.95 605.486L1115.76 512.678L1105.15 502.072Z" fill="#5A189A"/>
<path d="M1059.47 568.665L1038.25 589.878L1070.07 621.698L1091.29 600.484L1059.47 568.665Z" fill="#7B2CBF"/>
<path d="M936.818 708.98L927.83 709.451L934.906 844.265L943.894 843.795L936.818 708.98Z" fill="#9D4EDD"/>
<path d="M1050 788C1061.6 788 1071 778.598 1071 767C1071 755.402 1061.6 746 1050 746C1038.4 746 1029 755.402 1029 767C1029 778.598 1038.4 788 1050 788Z" fill="#C77DFF"/>
<path d="M1209.7 674.554L1205.11 670.697L1012.27 900.51L1016.87 904.367L1209.7 674.554Z" fill="#240046"/>
<path d="M1183.35 821.801L1155.77 798.66L1117.21 844.623L1144.78 867.763L1183.35 821.801Z" fill="#B5179E"/>
</g>
<g clip-path="url(#clip5_6_708)">
<path d="M117.803 449.844L22.344 545.303L80.6803 603.64L176.14 508.18L117.803 449.844Z" fill="#1E0B2E"/>
<path d="M136.211 547.801L83.1785 600.834L93.7851 611.441L146.818 558.408L136.211 547.801Z" fill="#3C1361"/>
<path d="M205.154 500.072L112.347 592.88L122.953 603.486L215.761 510.678L205.154 500.072Z" fill="#5A189A"/>
<path d="M159.468 566.665L138.255 587.878L170.074 619.698L191.288 598.484L159.468 566.665Z" fill="#7B2CBF"/>
<path d="M36.8175 706.98L27.8298 707.451L34.9059 842.265L43.8936 841.795L36.8175 706.98Z" fill="#9D4EDD"/>
<path d="M150 786C161.598 786 171 776.598 171 765C171 753.402 161.598 744 150 744C138.402 744 129 753.402 129 765C129 776.598 138.402 786 150 786Z" fill="#C77DFF"/>
<path d="M309.703 672.554L305.107 668.697L112.27 898.51L116.867 902.367L309.703 672.554Z" fill="#240046"/>
<path d="M283.352 819.801L255.774 796.66L217.207 842.623L244.785 865.763L283.352 819.801Z" fill="#B5179E"/>
</g>
<g clip-path="url(#clip6_6_708)">
<path d="M417.803 449.844L322.344 545.303L380.68 603.64L476.14 508.18L417.803 449.844Z" fill="#1E0B2E"/>
<path d="M436.211 547.801L383.178 600.834L393.785 611.441L446.818 558.408L436.211 547.801Z" fill="#3C1361"/>
<path d="M505.154 500.072L412.347 592.88L422.953 603.486L515.761 510.678L505.154 500.072Z" fill="#5A189A"/>
<path d="M459.468 566.665L438.255 587.878L470.074 619.698L491.288 598.484L459.468 566.665Z" fill="#7B2CBF"/>
<path d="M336.818 706.98L327.83 707.451L334.906 842.265L343.894 841.795L336.818 706.98Z" fill="#9D4EDD"/>
<path d="M450 786C461.598 786 471 776.598 471 765C471 753.402 461.598 744 450 744C438.402 744 429 753.402 429 765C429 776.598 438.402 786 450 786Z" fill="#C77DFF"/>
<path d="M609.703 672.554L605.107 668.697L412.27 898.51L416.867 902.367L609.703 672.554Z" fill="#240046"/>
<path d="M583.352 819.801L555.774 796.66L517.207 842.623L544.785 865.763L583.352 819.801Z" fill="#B5179E"/>
</g>
<g clip-path="url(#clip7_6_708)">
<path d="M717.803 -0.156069L622.344 95.3033L680.68 153.64L776.14 58.1802L717.803 -0.156069Z" fill="#1E0B2E"/>
<path d="M736.211 97.8015L683.178 150.834L693.785 161.441L746.818 108.408L736.211 97.8015Z" fill="#3C1361"/>
<path d="M805.154 50.0719L712.347 142.88L722.953 153.486L815.761 60.6785L805.154 50.0719Z" fill="#5A189A"/>
<path d="M759.468 116.665L738.255 137.878L770.074 169.698L791.288 148.484L759.468 116.665Z" fill="#7B2CBF"/>
<path d="M636.818 256.98L627.83 257.451L634.906 392.265L643.894 391.795L636.818 256.98Z" fill="#9D4EDD"/>
<path d="M750 336C761.598 336 771 326.598 771 315C771 303.402 761.598 294 750 294C738.402 294 729 303.402 729 315C729 326.598 738.402 336 750 336Z" fill="#C77DFF"/>
<path d="M909.703 222.554L905.107 218.697L712.27 448.51L716.867 452.367L909.703 222.554Z" fill="#240046"/>
<path d="M883.352 369.801L855.774 346.661L817.207 392.623L844.785 415.764L883.352 369.801Z" fill="#B5179E"/>
</g>
<g clip-path="url(#clip8_6_708)">
<path d="M1017.8 -0.156069L922.344 95.3033L980.68 153.64L1076.14 58.1802L1017.8 -0.156069Z" fill="#1E0B2E"/>
<path d="M1036.21 97.8015L983.178 150.834L993.785 161.441L1046.82 108.408L1036.21 97.8015Z" fill="#3C1361"/>
<path d="M1105.15 50.0719L1012.35 142.88L1022.95 153.486L1115.76 60.6785L1105.15 50.0719Z" fill="#5A189A"/>
<path d="M1059.47 116.665L1038.25 137.878L1070.07 169.698L1091.29 148.484L1059.47 116.665Z" fill="#7B2CBF"/>
<path d="M936.818 256.98L927.83 257.451L934.906 392.265L943.894 391.795L936.818 256.98Z" fill="#9D4EDD"/>
<path d="M1050 336C1061.6 336 1071 326.598 1071 315C1071 303.402 1061.6 294 1050 294C1038.4 294 1029 303.402 1029 315C1029 326.598 1038.4 336 1050 336Z" fill="#C77DFF"/>
<path d="M1209.7 222.554L1205.11 218.697L1012.27 448.51L1016.87 452.367L1209.7 222.554Z" fill="#240046"/>
<path d="M1183.35 369.801L1155.77 346.661L1117.21 392.623L1144.78 415.764L1183.35 369.801Z" fill="#B5179E"/>
</g>
<g clip-path="url(#clip9_6_708)">
<path d="M1317.8 -0.156069L1222.34 95.3033L1280.68 153.64L1376.14 58.1802L1317.8 -0.156069Z" fill="#1E0B2E"/>
<path d="M1336.21 97.8015L1283.18 150.834L1293.79 161.441L1346.82 108.408L1336.21 97.8015Z" fill="#3C1361"/>
<path d="M1405.15 50.0719L1312.35 142.88L1322.95 153.486L1415.76 60.6785L1405.15 50.0719Z" fill="#5A189A"/>
<path d="M1359.47 116.665L1338.25 137.878L1370.07 169.698L1391.29 148.484L1359.47 116.665Z" fill="#7B2CBF"/>
<path d="M1236.82 256.98L1227.83 257.451L1234.91 392.265L1243.89 391.795L1236.82 256.98Z" fill="#9D4EDD"/>
<path d="M1350 336C1361.6 336 1371 326.598 1371 315C1371 303.402 1361.6 294 1350 294C1338.4 294 1329 303.402 1329 315C1329 326.598 1338.4 336 1350 336Z" fill="#C77DFF"/>
<path d="M1509.7 222.554L1505.11 218.697L1312.27 448.51L1316.87 452.367L1509.7 222.554Z" fill="#240046"/>
<path d="M1483.35 369.801L1455.77 346.661L1417.21 392.623L1444.78 415.764L1483.35 369.801Z" fill="#B5179E"/>
</g>
<g clip-path="url(#clip10_6_708)">
<path d="M1317.8 449.844L1222.34 545.303L1280.68 603.64L1376.14 508.18L1317.8 449.844Z" fill="#1E0B2E"/>
<path d="M1336.21 547.801L1283.18 600.834L1293.79 611.441L1346.82 558.408L1336.21 547.801Z" fill="#3C1361"/>
<path d="M1405.15 500.072L1312.35 592.88L1322.95 603.486L1415.76 510.678L1405.15 500.072Z" fill="#5A189A"/>
<path d="M1359.47 566.665L1338.25 587.878L1370.07 619.698L1391.29 598.484L1359.47 566.665Z" fill="#7B2CBF"/>
<path d="M1236.82 706.98L1227.83 707.451L1234.91 842.265L1243.89 841.795L1236.82 706.98Z" fill="#9D4EDD"/>
<path d="M1350 786C1361.6 786 1371 776.598 1371 765C1371 753.402 1361.6 744 1350 744C1338.4 744 1329 753.402 1329 765C1329 776.598 1338.4 786 1350 786Z" fill="#C77DFF"/>
<path d="M1509.7 672.554L1505.11 668.697L1312.27 898.51L1316.87 902.367L1509.7 672.554Z" fill="#240046"/>
<path d="M1483.35 819.801L1455.77 796.66L1417.21 842.623L1444.78 865.763L1483.35 819.801Z" fill="#B5179E"/>
</g>
</g>
<defs>
<clipPath id="clip0_6_708">
<rect width="1600" height="900" fill="white"/>
</clipPath>
<clipPath id="clip1_6_708">
<rect width="300" height="450" fill="white"/>
</clipPath>
<clipPath id="clip2_6_708">
<rect width="300" height="450" fill="white" transform="translate(300)"/>
</clipPath>
<clipPath id="clip3_6_708">
<rect width="300" height="450" fill="white" transform="translate(600 452)"/>
</clipPath>
<clipPath id="clip4_6_708">
<rect width="300" height="450" fill="white" transform="translate(900 452)"/>
</clipPath>
<clipPath id="clip5_6_708">
<rect width="300" height="450" fill="white" transform="translate(0 450)"/>
</clipPath>
<clipPath id="clip6_6_708">
<rect width="300" height="450" fill="white" transform="translate(300 450)"/>
</clipPath>
<clipPath id="clip7_6_708">
<rect width="300" height="450" fill="white" transform="translate(600)"/>
</clipPath>
<clipPath id="clip8_6_708">
<rect width="300" height="450" fill="white" transform="translate(900)"/>
</clipPath>
<clipPath id="clip9_6_708">
<rect width="300" height="450" fill="white" transform="translate(1200)"/>
</clipPath>
<clipPath id="clip10_6_708">
<rect width="300" height="450" fill="white" transform="translate(1200 450)"/>
</clipPath>
</defs>
</svg>
